<?xml version="1.0" standalone="no"?>
<!DOCTYPE svg PUBLIC "-//W3C//DTD SVG 1.1//EN" "http://www.w3.org/Graphics/SVG/1.1/DTD/svg11.dtd" >
<svg xmlns="http://www.w3.org/2000/svg">
<metadata>
<json>
<![CDATA[
{
	"fontFamily": "grabaword",
	"majorVersion": 1,
	"minorVersion": 0,
	"version": "Version 1.0",
	"fontId": "grabaword",
	"psName": "grabaword",
	"subFamily": "Regular",
	"fullName": "grabaword",
	"description": "Font generated by IcoMoon."
}
]]>
</json>
</metadata>
<defs>
<font id="grabaword" horiz-adv-x="512">
<font-face units-per-em="512" ascent="480" descent="-32" />
<missing-glyph horiz-adv-x="512" />
<glyph unicode="&#x20;" horiz-adv-x="256" d="" />
<glyph unicode="&#xe600;" glyph-name="help_p_icon" data-tags="help_p_icon" horiz-adv-x="435" d="M130.161 185.099h174.874v174.867h-174.874v-174.867zM204.724 326.469h25.811l37.408-99.386h-23.953l-7.376 21.51h-38.816l-7.298-21.51h-23.244l37.467 99.386zM217.107 303.951l-14.225-37.579h28.428zM76.162 64h315.513c24.049 0 43.525 19.101 43.525 42.676v330.649c0 23.575-19.477 42.675-43.525 42.675h-348.151c-24.049 0-43.524-19.1-43.524-42.675v-426.651c0-23.575 19.475-42.676 43.524-42.676h364.474c15 0 27.2 11.95 27.2 26.652 0 14.75-12.2 26.674-27.2 26.674h-331.837c-11.975 0-21.763 9.623-21.763 21.325 0 11.749 9.788 21.351 21.763 21.351zM106.686 383.443h221.828v-221.825h-221.828v221.825z" />
<glyph unicode="&#xe601;" glyph-name="logo_small_bw" data-tags="logo_small_bw" horiz-adv-x="349" d="M215.655 234.406l-11.578 33.785h-60.964l-11.465-33.785h-36.507l58.854 156.105h40.539l58.746-156.105h-37.626zM173.439 355.145l-22.344-59.029h44.651l-22.306 59.029zM196.902-0.351c-6.726 42.004-14.712 84.279 13.263 84.279 27.946 0 21.737-32.59 21.737-53.632 0-26.705 39.869-24.217 39.869 0 0 19.585-5.127 56.865 20.126 71.506 19.693 11.39 54.971 1.993 54.971 29.569 0 23.639-24.442 3.459-24.442 3.459l-140.332 4.782c0 0-180.53 13.205-180.53-9.252 0-27.034 58.596-23.101 53.053-65.917-4.503-34.505 43.44-34.995 39.445 0-2.193 19.356 1.498 38.916 29.889 38.916 38.271 0 28.557-64.265 22.76-104.971-5.847-40.734 56.903-40.734 50.19 1.261zM311.544 443.132v-274.659h-274.671v274.659h274.671zM348.421 480h-348.421v-348.416h348.421v348.416z" />
<glyph unicode="&#xe602;" glyph-name="gametype-4" data-tags="gametype-3" horiz-adv-x="690" d="M683.812 331.854l-323.658 145.359c-8.313 3.724-21.912 3.724-30.225 0l-323.682-145.359c-8.337-3.724-8.337-9.827 0-13.575l62.684-28.159v-176.377h39.019v158.886l221.979-99.685c8.313-3.7 21.912-3.7 30.225 0l323.658 145.335c8.361 3.748 8.361 9.851 0 13.575zM345.041 131.139c-7.88 0-19.63 1.057-31.090 6.223l-168.809 75.803v-106.46c0-45.481 89.498-82.314 199.875-82.314s199.875 36.832 199.875 82.314v106.437l-168.736-75.779c-11.461-5.166-23.257-6.223-31.114-6.223zM110.376 78.809h-43.44c-3.075-7.88-22.104-95.385-22.104-95.385-3.34-8.505 1.417-15.425 10.523-15.425h16.674c9.13 0 24.075 0 33.18 0h16.698c9.13 0 13.863 6.92 10.524 15.425 0.048 0-18.981 87.503-22.056 95.385z" />
<glyph unicode="&#xe603;" glyph-name="nocandy" data-tags="nocandy" d="M256.027 480c-141.165 0-256.027-114.847-256.027-256.012 0-141.172 114.862-255.988 256.027-255.988 141.172 0 256.027 114.824 256.027 255.988s-114.855 256.012-256.027 256.012zM462.133 223.988c0-47.777-16.386-91.752-43.783-126.76l-289.115 289.084c35.008 27.374 79.014 43.783 126.791 43.783 113.613 0 206.106-92.462 206.106-206.106zM49.928 223.988c0 47.908 16.486 92.031 44.007 127.069l289.146-289.161c-35.008-27.521-79.115-44.007-127.053-44.007-113.613 0-206.099 92.454-206.099 206.099zM332.026 212.391c2.899 14.744-0.632 28.43-7.048 40.367-7.272 13.532-18.175 24.845-27.567 32.81-1.766 1.504-3.509 2.576-5.289 3.716-13.541 8.86-26.935 7.804-39.364 2.375l79.268-79.268zM189.119 188.688c1.912-3.624 4.041-7.125 6.385-10.44 7.195-12.045 16.239-20.727 25.84-26.626 18.090-11.065 38.177-12.045 52.211-5.861l-87.504 87.512c-5.583-13.625-5.028-29.34 3.069-44.585zM210.085 137.703c-0.74 3.339-16.232 12.399-23.195 22.57-6.978 10.217-7.742 17.759-9.701 19.717-1.704 1.712-9.739-1.457-26.001 0.239-33.882 3.531-50.839-4.087-55.11-15.229-4.279-11.158 13.641-8.405 17.412-25.538 2.645-12.114-1.373-35.995 29.063-40.459 30.482-4.457 38.177-35.725 49.867-29.733 11.697 5.976 17.311 31.9 16.008 51.524-0.478 6.663 2.483 13.541 1.658 16.91zM301.93 305.81c1.411-3.123 11.466-8.074 20.55-18.507 9.091-10.425 10.533-19.424 13.216-21.614 2.683-2.175 8.204-1.404 10.224-1.542 30.466-2.051 65.782 3.261 70.054 14.404 4.272 11.15-13.64 8.397-17.419 25.538-2.675 12.121 1.373 35.995-29.086 40.444-30.428 4.472-38.161 35.733-49.805 29.757-11.728-5.983-17.349-31.892-16.015-51.548 0.455-6.67-3.123-13.787-1.719-16.934z" />
<glyph unicode="&#xe604;" glyph-name="help_t_icon" data-tags="help_t_icon" horiz-adv-x="435" d="M235.509 297.202c0 7.85-6.35 14.165-14.201 14.165h-7.486c-7.834 0-14.164-6.315-14.164-14.165v-82.278h35.851v82.278zM76.162 64h315.511c24.049 0 43.525 19.099 43.525 42.673v330.651c0.001 23.575-19.476 42.675-43.524 42.675h-348.149c-24.050 0-43.525-19.1-43.525-42.675v-426.651c0-23.575 19.475-42.676 43.525-42.676h364.474c15 0 27.2 11.95 27.2 26.652 0 14.748-12.2 26.674-27.2 26.674h-331.837c-11.975 0-21.763 9.623-21.763 21.325 0 11.75 9.788 21.351 21.763 21.351zM125.367 409.397c0 5.176 4.142 9.368 9.316 9.368h29.709c5.141 0 9.367-4.193 9.367-9.368v-28.898h19.617v28.898c0 5.176 4.177 9.368 9.351 9.368h29.693c5.191 0 9.386-4.193 9.386-9.368v-28.898h19.579v28.898c0 5.176 4.211 9.368 9.385 9.368h29.709c5.143 0 9.351-4.193 9.351-9.368v-57.882c0-5.142-4.209-9.317-9.351-9.317h-7.848v-203.445c0-5.156-4.211-9.351-9.351-9.351h-131.414c-5.175 0-9.351 4.195-9.351 9.351v203.444h-7.833c-5.175 0-9.317 4.175-9.317 9.316v57.884z" />
<glyph unicode="&#xe605;" glyph-name="help_g_icon" data-tags="help_g_icon" horiz-adv-x="435" d="M76.162 64h315.513c24.049 0 43.525 19.099 43.525 42.675v330.651c0 23.575-19.477 42.675-43.525 42.675h-348.151c-24.049 0-43.524-19.1-43.524-42.675v-426.651c0-23.575 19.475-42.675 43.524-42.675h364.474c15 0 27.201 11.95 27.201 26.651 0 14.749-12.2 26.674-27.201 26.674h-331.837c-11.975 0-21.763 9.625-21.763 21.325 0 11.75 9.788 21.351 21.763 21.351zM122.953 262.483l122.573 160.474c2.201 2.776 5.562 4.502 9.345 4.502 6.672 0 12.040-5.487 12.040-12.21 0-1.29-0.193-2.526-0.546-3.7l-24.56-95.057h73.963c6.723 0 12.214-5.548 12.214-12.333 0-2.904-0.969-5.545-2.623-7.638l-122.584-160.483c-2.201-2.762-5.553-4.497-9.341-4.497-6.657 0-12.034 5.491-12.034 12.205 0 1.293 0.176 2.534 0.554 3.688l24.549 95.075h-73.963c-6.715 0-12.218 5.562-12.218 12.338-0.001 2.886 0.976 5.552 2.629 7.638z" />
<glyph unicode="&#xe606;" glyph-name="no_floor_up" data-tags="no_floor_up" d="M256.027 480c-141.165 0-256.027-114.847-256.027-256.012 0-141.172 114.862-255.988 256.027-255.988 141.172 0 256.027 114.824 256.027 255.988s-114.855 256.012-256.027 256.012zM462.133 223.988c0-47.777-16.386-91.752-43.783-126.76l-289.123 289.084c35.016 27.374 79.022 43.783 126.799 43.783 113.613 0 206.106-92.462 206.106-206.106zM49.928 223.988c0 47.908 16.486 92.031 44.007 127.069l289.146-289.161c-35.008-27.521-79.115-44.007-127.053-44.007-113.613 0-206.099 92.454-206.099 206.099zM272.544 113.768h-33.026v62.444l-52.612 52.627v-163.619c0-4.735 3.84-8.606 8.613-8.606h121.039c4.735 0 8.606 3.871 8.606 8.606v25.346l-52.612 52.642v-29.44zM270.423 274.889l54.733-54.71v84.458h7.233c4.735 0 8.613 3.825 8.613 8.575v53.337c0 4.773-3.878 8.628-8.613 8.628h-27.397c-4.727 0-8.606-3.856-8.606-8.628v-26.626h-18.051v26.626c0 4.773-3.871 8.628-8.637 8.628h-27.366c-4.734 0-8.606-3.856-8.606-8.628v-26.626h-18.052v26.626c0 4.773-3.91 8.628-8.613 8.628h-27.397c-2.591 0-4.865-1.234-6.462-3.053l92.94-92.901c1.789-1.079 3.231-2.537 4.279-4.333z" />
<glyph unicode="&#xe607;" glyph-name="gametype-2" data-tags="gametype-2" horiz-adv-x="473" d="M469.232 217.277c-20.241 115.62-130.425 192.94-246.044 172.678s-192.94-130.425-172.678-246.044c20.241-115.62 130.404-192.939 246.023-172.698 115.64 20.283 192.94 130.445 172.698 246.065zM109.731 158.695c-12.108 0-21.909 9.822-21.909 21.889 0 12.087 9.822 21.909 21.909 21.909s21.888-9.822 21.888-21.909c0-12.067-9.802-21.889-21.888-21.889zM259.861 352.623c12.087 0 21.889-9.822 21.889-21.909s-9.822-21.909-21.889-21.909c-12.107 0-21.909 9.822-21.909 21.909s9.802 21.909 21.909 21.909zM259.861 8.565c-12.107 0-21.909 9.822-21.909 21.889 0 12.108 9.822 21.909 21.909 21.909s21.889-9.822 21.889-21.909c0-12.067-9.801-21.889-21.889-21.889zM368.088 258.851l-88.398-88.398c-8.277-8.257-21.703-8.257-29.981 0-8.278 8.277-8.278 21.703 0 29.981l88.398 88.398c8.257 8.277 21.703 8.277 29.981 0 8.298-8.278 8.298-21.703 0-29.981zM409.991 158.695c-12.108 0-21.909 9.822-21.909 21.889 0 12.087 9.822 21.909 21.909 21.909s21.889-9.822 21.889-21.909c0-12.067-9.801-21.889-21.889-21.889zM348.053 456.279c0-13.116-10.625-23.721-23.721-23.721h-128.963c-13.096 0-23.701 10.605-23.701 23.721v0c-0.020 13.096 10.605 23.721 23.701 23.721h128.963c13.096 0 23.721-10.625 23.721-23.721v0zM90.169 359.788l-28.787 20.2c-8.525 5.992-20.323 3.913-26.295-4.613l-31.648-45.094c-6.013-8.525-3.913-20.303 4.613-26.295l28.787-20.221c12.499 28.622 30.66 54.505 53.331 76.022zM225.391 442.298h68.918v-70.051h-68.918v70.051z" />
<glyph unicode="&#xe608;" glyph-name="gametype-1" data-tags="gametype-1" horiz-adv-x="922" d="M495.17 334.496c-4.048 4.187-10.060 10.418-13.832 14.347l-11.33 11.767c-3.989 4.147-10.536 4.147-14.544 0l-11.351-11.767c-3.731-3.889-9.625-10-13.652-14.189-93.798-14.466-166.801-91.437-174.998-187.161h413.572c-8.155 95.366-80.663 172.12-173.865 187.002zM764.939 325.904c-5.557 34.786-19.745 68.876-28.832 67.487-7.303-1.112-13.89-82.747-90.882-109.911 27.225-28.237 46.353-64.034 54.191-103.581 57.327 36.075 70.78 108.86 65.523 146.006zM156.944 325.904c5.556 34.786 19.744 68.876 28.833 67.487 7.303-1.112 13.89-82.747 90.882-109.911-27.225-28.237-46.353-64.034-54.191-103.581-57.327 36.075-70.78 108.86-65.522 146.006zM678.284 161.822h-432.045c-7.739 0-14.068-6.31-14.068-14.049v-79.154c0-7.7 6.33-14.049 14.068-14.049h432.045c7.739 0 14.049 6.349 14.049 14.049v79.154c0 7.739-6.31 14.049-14.049 14.049zM325.81 86.576c-11.945 0-21.629 9.663-21.629 21.629 0 11.945 9.684 21.648 21.629 21.648 11.985 0 21.649-9.703 21.649-21.648 0-11.966-9.663-21.629-21.649-21.629zM462.231 86.576c-11.945 0-21.648 9.663-21.648 21.629 0 11.945 9.703 21.648 21.648 21.648 11.986 0 21.669-9.703 21.669-21.648 0-11.966-9.663-21.629-21.669-21.629zM598.673 86.576c-11.965 0-21.629 9.663-21.629 21.629 0 11.945 9.663 21.648 21.629 21.648 11.985 0 21.649-9.703 21.649-21.648 0-11.966-9.663-21.629-21.649-21.629z" />
<glyph unicode="&#xe609;" glyph-name="gametype-0" data-tags="gametype-0" horiz-adv-x="384" d="M350.462 93.949c0-11.87-9.663-21.533-21.553-21.533h-274.346c-11.891 0-21.533 9.663-21.533 21.533v0c0 11.891 9.642 21.533 21.533 21.533h274.346c11.891 0 21.553-9.642 21.553-21.533v0zM383.469-5.303c0-14.744-11.954-26.697-26.719-26.697h-330.053c-14.744 0-26.698 11.954-26.698 26.697v0c0 14.744 28.572 47.314 60.83 47.314h261.81c31.675 0.021 60.829-32.57 60.829-47.314v0zM339.612 279.499c0 137.736-121.846 151.521-122.305 152.667-9.142 22.99-25.823 38.172-48.334 47.481-0.167 0.021-0.208 0.229-0.313 0.354-2.228 0-4.457 0-6.664 0-5.206-3.228-7.081-7.747-6.851-13.911 0.395-11.266 0.125-22.491 0.146-33.757 0-1.728 0-3.416 0-4.082-9.267-2.041-18.471-2.582-26.239-6.143-10.787-4.998-20.763-11.912-30.571-18.701-3.082-2.145-5.852-6.455-6.393-10.079-2.166-15.098-11.058-25.594-22.012-34.881-13.807-11.62-64.641-48.73-67.681-57.394s16.035-40.025 25.261-46.856c14.973-11.058 33.090 0.52 53.687 7.31 13.849 4.56 29.842 6.768 39.588 4.415 27.322-7.372 47.731 1.728 64.391 15.618-1.978-10.704-7.56-18.618-14.556-25.198-11.703-11.079-24.053-21.574-36.256-32.133-15.785-13.62-51.166-40.38-51.166-77.031h223.721c0 0 32.55 56.248 32.55 132.321z" />
<glyph unicode="&#xe60a;" glyph-name="bubble" data-tags="bubble" horiz-adv-x="436" d="M377.352 480h-319.072c-32.191 0-58.279-26.094-58.279-58.279v-319.077c0-32.175 26.089-58.264 58.279-58.264h110.827l48.709-76.374 48.709 76.374h110.827c32.185 0 58.279 26.089 58.279 58.264v319.077c0 32.185-26.094 58.279-58.279 58.279z" />
<glyph unicode="&#xe60b;" glyph-name="thumb-down" data-tags="thumb-down" horiz-adv-x="627" d="M26.866 157.475h139.897c-34.694-76.065-36.826-112.512-36.826-121.954 0-67.858 43.265-71.478 54.067-65.543 10.816 5.92 8.319 47.32 17.774 67.297 59.749 126.288 244.16 158.008 245.31 158.345 0 0 8.459 0.351 8.459 22.853s0 150.811 0 177.704-12.57 26.88-12.57 26.88c-20.903 0-124.184 32.926-184.733 56.943h-104.207c-31.201 0-66.848-39.042-66.848-69.85v-2.286c-15.46-5.612-30.246-20.847-30.246-35.97v-40.375c-13.959-6.005-29.026-20.903-29.026-35.255v-37.864h-1.669c-15.895 0.014-26.248-10.058-26.248-25.631v-50.055c0-16.456 13.454-25.126 26.866-25.238zM626.364 412.016c0 6.565-5.373 11.938-11.938 11.938h-90.024c-6.566 0-11.938-5.373-11.938-11.938v-247.934c0-6.579 5.191-10.606 11.546-8.964l90.795 23.401c6.341 1.642 11.546 8.361 11.546 14.899v218.599z" />
<glyph unicode="&#xe60c;" glyph-name="floor" data-tags="floor" horiz-adv-x="327" d="M280.671 396.461h-42.11c-7.348 0-13.281-5.922-13.281-13.256v-40.976h-27.772v40.976c0.012 7.335-5.934 13.256-13.268 13.256h-42.084c-7.335 0-13.243-5.922-13.243-13.256v-40.976h-27.797v40.976c0 7.335-5.972 13.256-13.255 13.256h-42.11c-7.309 0-13.218-5.922-13.218-13.256v-82.017c0-7.296 5.909-13.217 13.218-13.217h11.104v-288.237c0-7.308 5.922-13.243 13.255-13.243h186.178c7.296 0 13.243 5.933 13.243 13.243v288.225h11.142c7.271 0 13.217 5.921 13.217 13.217v82.030c0 7.335-5.933 13.255-13.217 13.255zM188.607 107.637h-50.806v116.576c0 11.142 8.989 20.069 20.081 20.069h10.62c11.104 0 20.107-8.926 20.107-20.069v-116.576z" />
<glyph unicode="&#xe60d;" glyph-name="award" data-tags="award" d="M146.968 404.438c-7.072 4.284-16.931 8.548-26.176 8.548-38.557 0-69.777-30.831-69.777-68.916 0-55.1 59.917-74.758 95.953-101.898v-12.811c0-51.676 37.43-94.723 87.222-104.625v-61.926c0-9.389-7.851-17.096-17.444-17.096h-47.966c-12.033 0-21.81-9.572-21.81-21.339 0-11.788 9.778-21.36 21.81-21.36h174.462c12.012 0 21.79 9.572 21.79 21.36 0 11.766-9.798 21.339-21.79 21.339h-47.986c-9.594 0-17.444 7.707-17.444 17.096v61.926c49.812 9.901 87.221 52.947 87.221 104.625v12.811c36.016 27.141 95.953 46.798 95.953 101.898 0 38.087-31.219 68.916-69.777 68.916-9.245 0-19.104-4.264-26.156-8.548h-218.084zM225.477 344.663v-102.493c0-9.388-7.851-17.096-17.444-17.096s-17.444 7.707-17.444 17.096v102.493c0 9.389 7.831 17.075 17.444 17.075s17.444-7.687 17.444-17.075zM94.636 344.069c0 14.247 11.684 25.89 26.156 25.89s26.156-11.623 26.156-25.89v-52.537c-25.090 15.538-52.312 25.89-52.312 52.537zM417.385 344.069c0-26.648-27.223-36.999-52.353-52.537v52.537c0 14.247 11.664 25.89 26.156 25.89s26.197-11.644 26.197-25.89z" />
<glyph unicode="&#xe60e;" glyph-name="invite" d="M281.17 276.743l35.024 135.539c0.501 1.67 0.783 3.444 0.783 5.28 0 9.585-7.658 17.409-17.166 17.409-5.397 0-10.19-2.454-13.324-6.423l-174.776-228.818c-2.364-2.967-3.751-6.771-3.751-10.896 0-9.662 7.85-17.589 17.423-17.589h105.46l-34.999-135.564c-0.54-1.645-0.797-3.417-0.797-5.255 0-9.572 7.671-17.396 17.153-17.396 5.397 0 10.176 2.467 13.323 6.411l174.789 228.83c2.364 2.981 3.739 6.745 3.739 10.895 0 9.675-7.825 17.589-17.409 17.589h-105.473z" />
<glyph unicode="&#xe60f;" glyph-name="chat" d="M39.108 140.484c0-21.94 18.176-39.71 40.599-39.71h60.913v-61.244c0-11.008 9.141-19.848 20.315-19.848 5.677 0 10.857 2.274 14.517 5.964l76.86 75.144h179.998c22.423 0 40.584 17.769 40.584 39.71v248.124c0 21.926-18.161 39.71-40.584 39.71h-352.603c-22.422 0-40.599-17.784-40.599-39.71v-248.139zM139.249 276.119c0 13.703 11.369 24.817 25.389 24.817 14.005 0 25.374-11.114 25.374-24.817s-11.369-24.817-25.374-24.817c-14.020 0-25.389 11.129-25.389 24.817zM230.626 276.119c0 13.703 11.355 24.817 25.374 24.817s25.389-11.114 25.389-24.817-11.37-24.817-25.389-24.817c-14.005 0-25.374 11.129-25.374 24.817zM322.003 276.119c0 13.703 11.37 24.817 25.389 24.817 14.005 0 25.374-11.114 25.374-24.817s-11.37-24.817-25.374-24.817c-14.020 0-25.389 11.129-25.389 24.817z" />
<glyph unicode="&#xe610;" glyph-name="forward-icon2" horiz-adv-x="540" d="M48.4 167.123l265.792-0.016-98.983-99.933c-21.817-21.832-20.851-58.406 2.074-81.378 22.972-22.91 59.498-23.844 81.315-2.043l241.411 242.329-241.648 238.624c-21.437 21.421-57.709 20.202-80.681-2.723-22.972-22.973-24.16-59.245-2.723-80.682l99.237-96.165-265.792-0.031c-26.55 0.031-48.336-26.551-48.4-59.039 0-32.441 21.849-58.96 48.4-58.944z" />
<glyph unicode="&#xe611;" glyph-name="close" d="M360.077 224l130.346 130.346c28.769 28.731 28.769 75.346 0.038 104.077-28.731 28.769-75.385 28.731-104.077 0l-130.385-130.385-130.385 130.385c-28.731 28.731-75.308 28.731-104.077 0-28.731-28.731-28.731-75.308 0-104.077l130.385-130.385-130.346-130.308c-28.731-28.731-28.769-75.385 0-104.115 28.731-28.731 75.346-28.731 104.077 0.038l130.346 130.346 130.346-130.346c28.731-28.769 75.346-28.769 104.077-0.038 28.769 28.769 28.731 75.385 0 104.077l-130.346 130.385z" />
<glyph unicode="&#xe612;" glyph-name="diff-icon-1" data-tags="star2" horiz-adv-x="1219" d="M253.718 467.634c8.133 16.489 21.431 16.489 29.565 0l58.399-118.393c8.134-16.489 29.675-32.113 47.849-34.751l130.627-18.927c18.173-2.637 22.295-15.27 9.153-28.125l-94.524-92.196c-13.164-12.832-21.387-38.164-18.262-56.248l22.251-130.139c3.125-18.107-7.646-25.908-23.935-17.375l-116.797 61.457c-16.245 8.555-42.84 8.555-59.085 0l-116.797-61.457c-16.267-8.533-27.061-0.731-23.936 17.375l22.296 130.139c3.125 18.084-5.12 43.416-18.262 56.226l-94.567 92.24c-13.143 12.81-9.020 25.465 9.153 28.102l130.626 18.927c18.173 2.637 39.715 18.262 47.849 34.751l58.399 118.393zM935.682 467.634c8.134 16.489 21.431 16.489 29.565 0l58.399-118.393c8.133-16.489 29.676-32.113 47.849-34.751l130.627-18.927c18.174-2.637 22.295-15.27 9.153-28.125l-94.524-92.196c-13.165-12.832-21.387-38.164-18.262-56.248l22.251-130.139c3.125-18.107-7.646-25.908-23.936-17.375l-116.797 61.457c-16.245 8.555-42.841 8.555-59.086 0l-116.797-61.457c-16.268-8.533-27.061-0.731-23.936 17.375l22.295 130.139c3.125 18.084-5.12 43.416-18.262 56.226l-94.545 92.24c-13.143 12.832-9.020 25.465 9.153 28.102l130.626 18.927c18.173 2.637 39.716 18.262 47.849 34.751l58.376 118.393z" />
<glyph unicode="&#xe613;" glyph-name="diff-icon-0" data-tags="star1" horiz-adv-x="537" d="M253.718 467.634c8.133 16.467 21.431 16.467 29.565 0l58.399-118.393c8.134-16.467 29.675-32.113 47.849-34.729l130.627-18.927c18.173-2.638 22.295-15.27 9.153-28.125l-94.524-92.197c-13.164-12.832-21.387-38.164-18.262-56.248l22.251-130.138c3.125-18.107-7.646-25.908-23.935-17.375l-116.797 61.457c-16.245 8.555-42.84 8.555-59.085 0l-116.797-61.457c-16.267-8.533-27.061-0.731-23.936 17.375l22.296 130.139c3.125 18.084-5.12 43.416-18.262 56.226l-94.567 92.219c-13.143 12.81-9.020 25.465 9.153 28.102l130.626 18.927c18.173 2.615 39.715 18.262 47.849 34.751l58.399 118.392z" />
<glyph unicode="&#xe614;" glyph-name="candy" horiz-adv-x="537" d="M322.288 255.179c-2.204 1.885-4.399 3.223-6.625 4.644-23.236 15.213-46.129 7.267-66.069-6.335-26.728-18.209-50.906-35.835-62.512-54.784s-12.731-42.497-0.697-65.13c2.399-4.544 5.064-8.928 8.023-13.086 9.026-15.13 20.361-26.014 32.425-33.417 24.064-14.745 51.102-15.376 68.718-5.974 26.454 14.065 50.236 39.137 64.087 64.073 12.276 25.435 7.873 49.039-2.76 68.814-9.111 16.988-22.817 31.19-34.59 41.194zM319.644 229.864c-3.233-13.893-19.957-14.421-42.815-24.242-22.945-9.789-38.726-33.199-50.483-12.64-11.725 20.586 23.221 45.261 46.111 55.053 22.894 9.798 50.399-4.572 47.187-18.173zM183.573 97.925c-8.751 12.81-9.694 22.279-12.144 24.73-2.145 2.146-12.226-1.836-32.651 0.305-42.528 4.43-63.814-5.131-69.174-19.123-5.36-13.997 17.115-10.528 21.855-32.054 3.314-15.213-1.721-45.173 36.471-50.755 38.238-5.615 47.914-44.849 62.594-37.346 14.679 7.517 21.724 40.043 20.071 64.689-0.569 8.363 3.133 16.983 2.108 21.209-0.923 4.185-20.394 15.568-29.131 28.348zM412.736 329.172c-38.188 5.601-47.901 44.849-62.526 37.346-14.685-7.508-21.741-40.032-20.089-64.698 0.569-8.37-3.911-17.306-2.146-21.255 1.757-3.92 14.37-10.141 25.783-23.231 11.416-13.082 13.219-24.375 16.583-27.125 3.361-2.736 10.308-1.753 12.839-1.929 38.238-2.572 82.57 4.089 87.928 18.082s-17.115 10.527-21.875 32.047c-3.347 15.213 1.735 45.173-36.505 50.764z" />
<glyph unicode="&#xe615;" glyph-name="contacts_manage" d="M312.592 401.191c0 16.751 3.423 32.705 9.599 47.198h-251.451c-39.066 0.005-70.74-31.671-70.74-70.74v-338.908c0-39.070 31.675-70.74 70.74-70.74h338.903c39.075 0 70.74 31.675 70.74 70.74v251.56c-14.517-6.191-30.486-9.629-47.267-9.629-66.56-0.005-120.524 53.954-120.524 120.519zM348.344 91.7c0-12.219-9.931-22.12-22.19-22.12h-171.923c-12.264 0-22.185 9.901-22.185 22.12 0 0 0.054 25.979 0 27.634 0.168 6.42 2.655 18.416 7.266 24.385 15.915 20.675 36.43 31.452 70.766 35.038 6.875 0.837 12.209 6.692 12.209 13.72 0 4.849-15.583 19.228-15.583 19.228-16.305 16.637-24.736 43.835-24.736 64.728 0 32.279 26.069 58.487 58.239 58.487 32.156 0 58.239-26.207 58.239-58.487 0-20.779-8.658-47.813-24.805-64.455 0.109-0.104-15.533-14.651-15.533-19.505 0-6.647 4.784-12.219 11.1-13.493 35.048-3.477 55.792-14.315 71.889-35.267 4.596-5.969 7.098-17.965 7.257-24.385-0.055-1.649-0.010-27.628-0.010-27.628zM424.74 401.195c0 4.631 3.755 8.381 8.38 8.381s8.38-3.755 8.38-8.381-3.755-8.38-8.38-8.38-8.38 3.75-8.38 8.38zM376.651 385.163c1.278-4.522 3.086-8.817 5.36-12.809l-10.050-10.996c-2.887-2.878-2.887-7.538 0-10.432l10.892-10.892c2.887-2.893 7.548-2.893 10.431 0l10.996 10.065c3.992-2.284 8.291-4.101 12.813-5.374l0.946-14.954c0-4.087 3.279-7.375 7.375-7.375h15.414c4.096 0 7.375 3.294 7.375 7.375l0.946 14.954c4.522 1.278 8.817 3.091 12.813 5.374l10.996-10.065c2.878-2.893 7.543-2.893 10.432 0l10.892 10.892c2.887 2.887 2.887 7.553 0 10.431l-10.065 10.996c2.288 3.992 4.096 8.286 5.374 12.809l14.959 0.946c4.087 0 7.375 3.279 7.375 7.365v15.434c0 4.091-3.289 7.375-7.375 7.375l-14.959 0.941c-1.278 4.522-3.086 8.816-5.374 12.809l10.065 11.001c2.887 2.882 2.887 7.538 0 10.421l-10.892 10.897c-2.887 2.887-7.553 2.887-10.432 0l-10.996-10.055c-3.997 2.279-8.291 4.091-12.813 5.364l-0.946 14.964c0 4.086-3.279 7.375-7.375 7.375h-15.409c-4.096 0-7.375-3.289-7.375-7.375l-0.951-14.964c-4.522-1.273-8.822-3.086-12.813-5.364l-10.996 10.055c-2.882 2.887-7.543 2.887-10.432 0l-10.892-10.897c-2.887-2.882-2.887-7.538 0-10.421l10.050-11.001c-2.274-3.992-4.082-8.286-5.36-12.809l-14.959-0.941c-4.087 0-7.375-3.284-7.375-7.375v-15.434c0-4.087 3.289-7.365 7.375-7.365l14.959-0.946zM433.122 436.408c19.451 0 35.207-15.766 35.207-35.212 0-19.441-15.761-35.212-35.207-35.212-19.456 0-35.207 15.771-35.207 35.212 0 19.446 15.756 35.212 35.207 35.212z" />
<glyph unicode="&#xe616;" glyph-name="user" d="M311.413 128.632c-11.055 1.759-11.307 32.157-11.307 32.157s32.484 32.158 39.564 75.401c19.045 0 30.809 45.973 11.761 62.148 0.795 17.027 24.48 133.662-95.431 133.662s-96.225-116.635-95.432-133.662c-19.047-16.175-7.285-62.148 11.761-62.148 7.079-43.243 39.564-75.401 39.564-75.401s-0.252-30.398-11.307-32.157c-35.61-5.666-168.586-64.317-168.586-128.632h448c0 64.315-132.976 122.966-168.587 128.632z" />
<glyph unicode="&#xe617;" glyph-name="user2" d="M128 320c0 70.692 57.308 128 128 128s128-57.308 128-128c0-70.692-57.308-128-128-128s-128 57.308-128 128zM384 160h-256c-70.692 0-128-57.309-128-128v-32h512v32c0 70.691-57.308 128-128 128z" />
<glyph unicode="&#xe618;" glyph-name="spinner" d="M256 480c-141.385 0-256-114.615-256-256s114.615-256 256-256 256 114.615 256 256-114.615 256-256 256zM256 352c70.692 0 128-57.308 128-128s-57.308-128-128-128-128 57.308-128 128 57.308 128 128 128zM408.735 71.265c-40.797-40.797-95.040-63.265-152.735-63.265-57.696 0-111.938 22.468-152.735 63.265s-63.265 95.039-63.265 152.735c0 57.695 22.468 111.938 63.265 152.735l33.941-33.941c0 0 0 0 0 0-65.503-65.503-65.503-172.085 0-237.588 31.731-31.731 73.919-49.206 118.794-49.206s87.062 17.475 118.794 49.206c65.503 65.503 65.503 172.084 0 237.588l33.941 33.941c40.797-40.797 63.265-95.040 63.265-152.735 0-57.696-22.468-111.938-63.265-152.735z" />
<glyph unicode="&#xe619;" glyph-name="lock" d="M296 256h-8v96c0 52.935-43.065 96-96 96h-64c-52.935 0-96-43.065-96-96v-96h-8c-13.2 0-24-10.8-24-24v-240c0-13.2 10.8-24 24-24h272c13.2 0 24 10.8 24 24v240c0 13.2-10.8 24-24 24zM192 32h-64l13.92 69.6c-8.404 5.766-13.92 15.437-13.92 26.4 0 17.673 14.327 32 32 32s32-14.327 32-32c0-10.963-5.516-20.634-13.92-26.4l13.92-69.6zM224 256h-128v96c0 17.645 14.355 32 32 32h64c17.645 0 32-14.355 32-32v-96z" />
<glyph unicode="&#xe61a;" glyph-name="unlocked" d="M384 448h-64c-52.935 0-96-43.065-96-96v-96h-200c-13.2 0-24-10.8-24-24v-240c0-13.2 10.8-24 24-24h272c13.2 0 24 10.8 24 24v240c0 13.2-10.8 24-24 24h-8v96c0 17.645 14.355 32 32 32h64c17.645 0 32-14.355 32-32v-96h64v96c0 52.935-43.065 96-96 96zM192 32h-64l13.92 69.6c-8.404 5.766-13.92 15.437-13.92 26.4 0 17.673 14.327 32 32 32s32-14.327 32-32c0-10.963-5.516-20.634-13.92-26.4l13.92-69.6z" />
<glyph unicode="&#xe61b;" glyph-name="cogs" d="M181.861 118.974l20.649 28.908-22.627 22.628-28.909-20.648c-5.361 2.997-11.102 5.387-17.133 7.096l-5.841 35.042h-32l-5.84-35.043c-6.031-1.709-11.772-4.099-17.133-7.096l-28.909 20.649-22.628-22.628 20.649-28.908c-2.997-5.36-5.387-11.103-7.096-17.133l-35.043-5.841v-32l35.043-5.841c1.709-6.030 4.099-11.772 7.096-17.133l-20.649-28.908 22.627-22.628 28.909 20.648c5.361-2.997 11.102-5.387 17.133-7.096l5.841-35.042h32l5.84 35.043c6.031 1.709 11.772 4.099 17.133 7.096l28.909-20.648 22.627 22.628-20.649 28.908c2.997 5.36 5.387 11.103 7.096 17.133l35.044 5.84v32l-35.043 5.841c-1.709 6.030-4.099 11.772-7.096 17.133zM112 48c-17.674 0-32 14.327-32 32s14.326 32 32 32 32-14.327 32-32-14.326-32-32-32zM512 288v32l-33.691 6.125c-0.621 4.023-1.416 7.989-2.362 11.895l28.779 18.55-12.246 29.564-33.472-7.234c-2.107 3.455-4.363 6.81-6.746 10.065l19.503 28.171-22.628 22.627-28.171-19.503c-3.256 2.383-6.61 4.638-10.065 6.747l7.234 33.472-29.564 12.247-18.55-28.779c-3.906 0.946-7.872 1.741-11.895 2.362l-6.126 33.691h-32l-6.126-33.691c-4.023-0.621-7.988-1.416-11.895-2.362l-18.549 28.779-29.564-12.246 7.234-33.472c-3.455-2.108-6.81-4.364-10.065-6.747l-28.171 19.503-22.627-22.627 19.503-28.171c-2.383-3.255-4.639-6.61-6.747-10.065l-33.472 7.234-12.246-29.564 28.779-18.55c-0.946-3.906-1.741-7.871-2.362-11.895l-33.692-6.126v-32l33.691-6.125c0.621-4.023 1.416-7.989 2.362-11.895l-28.779-18.55 12.246-29.564 33.472 7.234c2.108-3.455 4.364-6.809 6.747-10.065l-19.503-28.171 22.627-22.628 28.171 19.503c3.255-2.383 6.61-4.638 10.065-6.746l-7.234-33.472 29.564-12.246 18.551 28.779c3.905-0.946 7.871-1.741 11.894-2.362l6.126-33.692h32l6.126 33.691c4.022 0.621 7.988 1.416 11.895 2.362l18.55-28.779 29.564 12.246-7.234 33.472c3.455 2.108 6.81 4.363 10.065 6.746l28.171-19.503 22.628 22.628-19.503 28.171c2.383 3.256 4.638 6.61 6.746 10.065l33.472-7.234 12.246 29.565-28.779 18.55c0.946 3.906 1.741 7.871 2.362 11.895l33.691 6.125zM336 234.4c-38.439 0-69.6 31.161-69.6 69.6s31.16 69.6 69.6 69.6 69.6-31.161 69.6-69.6c0-38.439-31.16-69.6-69.6-69.6z" />
<glyph unicode="&#xe61c;" glyph-name="fire" d="M103.772 30.41c-25.806 53.693-12.064 84.463 7.77 113.45 21.719 31.743 27.314 63.171 27.314 63.171s17.072-22.196 10.246-56.906c30.165 33.577 35.851 87.071 31.302 107.555 68.18-47.646 97.317-150.81 58.046-227.267 208.853 118.173 51.95 294.989 24.636 314.908 9.108-19.918 10.829-53.637-7.563-69.996-31.136 118.075-108.13 142.274-108.13 142.274 9.107-60.894-33.007-127.475-73.617-177.229-1.427 24.283-2.94 41.034-15.712 64.27-2.867-44.106-36.577-80.064-45.701-124.255-12.364-59.851 9.261-103.669 91.409-149.966z" />
<glyph unicode="&#xe61d;" glyph-name="clock" d="M256 480c-141.392 0-256-114.647-256-256 0-141.41 114.609-255.981 256-255.981 141.373 0 255.981 114.571 255.981 255.981 0.019 141.353-114.589 256-255.981 256zM246.054 427.346c0 5.543 4.499 10.060 10.079 10.060 5.505 0 10.003-4.517 10.003-10.060v-20.538c0-5.561-4.498-10.060-10.003-10.060-5.581 0-10.079 4.48-10.079 10.060v20.538zM73.305 213.921h-20.576c-5.523 0-10.041 4.498-10.041 10.041s4.517 10.079 10.041 10.079h20.576c5.523 0 10.022-4.536 10.022-10.079 0.019-5.543-4.498-10.041-10.022-10.041zM266.136 20.654c0-5.58-4.498-10.079-10.003-10.079-5.581 0-10.079 4.498-10.079 10.079v20.538c0 5.524 4.499 10.041 10.079 10.041 5.505 0 10.003-4.517 10.003-10.041v-20.538zM256 183.323c-22.474 0-40.677 18.203-40.677 40.677 0 8.276 2.524 16.001 6.833 22.436l-51.192 113.109c-2.885 6.055-0.285 13.268 5.79 16.077 5.6 2.657 12.167 0.626 15.413-4.48l65.239-106.637c9.946-0.38 18.962-4.308 25.872-10.572l156.292 73.704c3.986 1.917 8.712 0.228 10.63-3.739 1.822-3.815 0.284-8.37-3.36-10.402l-150.977-81.942c0.493-2.468 0.778-4.992 0.778-7.574 0.019-22.455-18.184-40.658-40.639-40.658zM459.479 213.921h-20.538c-5.543 0-10.041 4.498-10.041 10.041s4.498 10.079 10.041 10.079h20.538c5.562 0 10.041-4.536 10.041-10.079s-4.479-10.041-10.041-10.041z" />
<glyph unicode="&#xe61e;" glyph-name="bonus-s" d="M256.017 480c-141.397 0-256.017-114.637-256.017-256s114.62-256 256.017-256c141.38 0 256.017 114.62 256.017 256s-114.637 256-256.017 256zM256.017 43.548c-99.663 0-180.452 80.805-180.452 180.452s80.788 180.452 180.452 180.452 180.435-80.805 180.435-180.452-80.772-180.452-180.435-180.452zM256.017 320.543c-53.351 0-96.525-43.227-96.525-96.543s43.192-96.543 96.525-96.543 96.526 43.226 96.526 96.543c0 53.299-43.192 96.543-96.525 96.543z" />
<glyph unicode="&#xe61f;" glyph-name="bonus-l" horiz-adv-x="375" d="M249.422 450.988c0-16.022-12.989-29.012-29.012-29.012s-29.012 12.989-29.012 29.012c0 16.023 12.989 29.012 29.012 29.012s29.012-12.989 29.012-29.012zM179.912 402.63c0-10.675-8.655-19.33-19.33-19.33s-19.33 8.654-19.33 19.33c0 10.675 8.655 19.33 19.33 19.33s19.33-8.654 19.33-19.33zM367.289 26.057l-116.825 179.466v119.704h0.033c9.864 0 17.857 7.977 17.857 17.857 0 9.863-7.993 17.857-17.857 17.857h-125.067c-9.88 0-17.857-7.993-17.857-17.857 0-9.88 7.993-17.857 17.857-17.857v-118.745l-117.603-180.425c-8.589-10.724-10.261-25.421-4.303-37.816 5.942-12.363 18.47-20.257 32.206-20.257h303.671c13.736 0 26.248 7.894 32.206 20.257 5.942 12.396 4.253 27.092-4.32 37.816zM215.462 3.731c-0.232 0.646-0.397 1.241-0.629 1.887-1.523 4.353-3.045 8.688-4.551 12.991h-46.405c-1.489-4.336-3.012-8.672-4.501-13.024-0.215-0.646-0.397-1.224-0.613-1.853h-27.539c3.078 8.639 6.057 16.98 8.904 24.659 4.005 10.856 7.944 21.084 11.767 30.683 3.839 9.582 7.613 18.701 11.353 27.34 3.74 8.623 7.596 17.046 11.618 25.272h25.338c3.905-8.225 7.762-16.649 11.535-25.272 3.79-8.623 7.596-17.758 11.452-27.34 3.856-9.599 7.779-19.827 11.8-30.683 2.846-7.679 5.842-16.020 8.921-24.659h-28.449zM161.145 193.938v131.289h53.588v-132.249l31.445-39.305h-117.238l32.206 40.265zM193.798 67.514c-1.539 3.889-2.88 7.315-4.038 10.277-1.142 2.962-2.085 5.296-2.797 6.984-0.596-1.721-1.473-4.071-2.615-7.034-1.159-2.979-2.466-6.405-3.939-10.294s-3.112-8.175-4.916-12.859c-1.821-4.683-3.674-9.582-5.544-14.729h33.993c-1.837 5.163-3.591 10.079-5.296 14.779-1.704 4.683-3.31 8.986-4.849 12.875z" />
<glyph unicode="&#xe620;" glyph-name="back-icon" horiz-adv-x="540" d="M491.601 167.123l-265.792-0.016 98.983-99.933c21.817-21.832 20.851-58.406-2.074-81.378-22.973-22.91-59.498-23.844-81.315-2.043l-241.411 242.329 241.648 238.624c21.437 21.421 57.708 20.202 80.681-2.723 22.973-22.973 24.16-59.245 2.723-80.682l-99.237-96.165 265.792-0.031c26.55 0.031 48.336-26.551 48.399-59.039 0-32.441-21.848-58.96-48.399-58.944z" />
<glyph unicode="&#xe621;" glyph-name="bonus-t" d="M329.372 105.372l-105.372 105.373v141.255h64v-114.745l86.628-86.627zM256 480c-141.385 0-256-114.615-256-256s114.615-256 256-256 256 114.615 256 256-114.615 256-256 256zM256 32c-106.039 0-192 85.961-192 192s85.961 192 192 192c106.039 0 192-85.961 192-192s-85.961-192-192-192z" />
<glyph unicode="&#xe622;" glyph-name="busy" d="M364.496 224c68.877 43.667 115.504 127.604 115.504 224 0 10.838-0.596 21.517-1.739 32h-444.521c-1.145-10.484-1.74-21.163-1.74-32 0-96.396 46.627-180.333 115.503-224-68.876-43.667-115.503-127.604-115.503-224 0-10.838 0.595-21.517 1.739-32h444.521c1.144 10.483 1.739 21.162 1.739 32 0.001 96.396-46.626 180.333-115.503 224zM80 0c0 93.456 40.081 172.707 112 198.854v50.293c-71.919 26.145-112 105.396-112 198.853v0h352c0-93.457-40.081-172.708-112-198.853v-50.293c71.919-26.147 112-105.398 112-198.854h-352zM309.813 145.203c-35.827 20.322-37.804 46.684-37.813 62.683v32.114c0 15.997 1.902 42.457 37.872 62.832 19.252 11.182 35.904 28.174 48.524 49.168h-204.791c12.633-21.016 29.306-38.021 48.583-49.203 35.827-20.322 37.803-46.683 37.813-62.683v-32.114c0-15.996-1.902-42.457-37.872-62.832-36.311-21.090-63.369-62.842-71.545-113.168h250.835c-8.182 50.354-35.265 92.124-71.606 113.203z" />
<glyph unicode="&#xe623;" glyph-name="idea" d="M436.604 480h-361.204c-41.641 0-75.401-33.76-75.401-75.395v-361.209c0-41.641 33.76-75.395 75.401-75.395h361.204c41.647 0 75.401 33.76 75.401 75.395v361.209c0 41.636-33.755 75.396-75.401 75.396zM311.433 158.774h-61.469c-7.786 0-14.084-5.86-14.084-13.034s6.298-13.050 14.084-13.050h59.706v-13.098c0-9.138-3.885-17.432-10.125-23.355l-19.723-19.173c-13.145-12.786-34.488-12.786-47.633 0l-19.712 19.173c-6.24 5.923-10.147 14.211-10.147 23.355v19.617c0 64.832-53.667 84.385-53.667 139.768 0 56.085 48.040 101.532 107.344 101.532 59.315 0 107.344-45.447 107.344-101.532-0.005-49.042-42.745-69.905-51.919-120.204z" />
<glyph unicode="&#xe624;" glyph-name="question" d="M436.599 480h-361.204c-41.636 0-75.395-33.76-75.395-75.395v-361.209c0-41.641 33.76-75.395 75.395-75.395h361.204c41.647 0 75.396 33.76 75.396 75.395v361.209c0 41.636-33.749 75.396-75.395 75.396zM274.891 76.717c-6.156-5.474-13.277-8.219-21.359-8.219-8.357 0-15.642 2.714-21.876 8.125-6.234 5.401-9.349 12.971-9.349 22.695 0 8.632 3.009 15.88 9.037 21.776 6.024 5.875 13.419 8.827 22.183 8.827 8.631 0 15.884-2.951 21.776-8.827 5.886-5.897 8.832-13.145 8.832-21.776 0.005-9.587-3.072-17.115-9.243-22.599zM351.617 266.932c-4.73-8.763-10.341-16.323-16.84-22.695-6.509-6.372-18.176-17.083-35.016-32.15-4.666-4.25-8.399-7.971-11.202-11.197-2.808-3.215-4.894-6.166-6.266-8.827-1.378-2.671-2.439-5.342-3.188-8.014s-1.88-7.365-3.384-14.074c-2.608-14.238-10.753-21.365-24.447-21.365-7.121 0-13.113 2.328-17.97 6.979-4.862 4.661-7.291 11.577-7.291 20.747 0 11.509 1.779 21.464 5.343 29.89 3.558 8.425 8.283 15.816 14.174 22.188 5.886 6.372 13.831 13.931 23.825 22.695 8.763 7.671 15.098 13.457 19.010 17.352 3.901 3.907 7.185 8.257 9.856 13.055 2.676 4.783 4.002 9.993 4.002 15.61 0 10.954-4.070 20.192-12.216 27.726-8.151 7.528-18.661 11.297-31.532 11.297-15.066 0-26.157-3.801-33.279-11.403-7.121-7.596-13.145-18.798-18.070-33.58-4.656-15.478-13.494-23.207-26.501-23.207-7.671 0-14.143 2.703-19.406 8.103-5.274 5.411-7.913 11.271-7.913 17.569 0 13.007 4.175 26.189 12.532 39.54 8.351 13.351 20.541 24.411 36.563 33.173s34.715 13.145 56.079 13.145c19.855 0 37.387-3.663 52.574-10.991 15.209-7.327 26.95-17.289 35.238-29.885 8.277-12.601 12.427-26.295 12.427-41.077-0.016-11.651-2.37-21.845-7.101-30.608z" />
<glyph unicode="&#xe625;" glyph-name="cog" d="M512 175.953v96.094l-73.387 12.231c-2.979 9.066-6.611 17.834-10.847 26.25l43.227 60.517-67.948 67.949-60.413-43.152c-8.455 4.277-17.269 7.944-26.384 10.951l-12.201 73.207h-96.094l-12.201-73.208c-9.115-3.007-17.929-6.674-26.383-10.951l-60.414 43.152-67.949-67.949 43.227-60.518c-4.235-8.415-7.867-17.183-10.846-26.249l-73.387-12.23v-96.094l73.559-12.26c2.98-8.984 6.605-17.674 10.821-26.015l-43.374-60.724 67.949-67.948 60.827 43.447c8.301-4.175 16.945-7.764 25.882-10.717l12.289-73.736h96.094l12.289 73.737c8.937 2.953 17.581 6.542 25.883 10.716l60.826-43.446 67.948 67.948-43.372 60.723c4.216 8.341 7.839 17.031 10.82 26.016l73.559 12.259zM256 160c-35.346 0-64 28.653-64 64s28.654 64 64 64c35.347 0 64-28.654 64-64s-28.653-64-64-64z" />
<glyph unicode="&#xe626;" glyph-name="attention" d="M256 480c-141.385 0-256-114.615-256-256s114.615-256 256-256 256 114.615 256 256-114.615 256-256 256zM279.661 57.763c-6.697-5.949-14.508-8.93-23.438-8.93-9.080 0-17.005 2.936-23.774 8.813-6.774 5.881-10.154 14.101-10.154 24.666 0 9.225 3.235 17.082 9.71 23.552s14.399 9.71 23.774 9.71 17.376-3.235 24.001-9.71c6.62-6.475 9.932-14.327 9.932-23.552-0.005-10.412-3.353-18.604-10.050-24.549zM288.147 305.322l-9.601-110.053c-1.038-13.099-3.276-23.139-6.697-30.135-3.425-6.996-9.080-10.489-16.964-10.489-8.038 0-13.62 3.385-16.742 10.159-3.126 6.769-5.36 17.077-6.702 30.915l-7.141 106.927c-1.341 20.833-2.007 35.79-2.007 44.87 0 12.351 3.235 21.989 9.71 28.907s14.993 10.38 25.564 10.38c12.796 0 21.355-4.431 25.673-13.281 4.313-8.858 6.475-21.617 6.475-38.286-0.009-9.823-0.534-19.796-1.567-29.913z" />
<glyph unicode="&#xe627;" glyph-name="share" d="M432 128c-22.58 0-42.96-9.369-57.506-24.415l-215.502 107.751c0.657 4.126 1.008 8.353 1.008 12.664s-0.351 8.538-1.008 12.663l215.502 107.751c14.546-15.045 34.926-24.414 57.506-24.414 44.183 0 80 35.817 80 80s-35.817 80-80 80-80-35.817-80-80c0-4.311 0.352-8.538 1.008-12.663l-215.502-107.752c-14.546 15.045-34.926 24.415-57.506 24.415-44.183 0-80-35.818-80-80 0-44.184 35.817-80 80-80 22.58 0 42.96 9.369 57.506 24.414l215.502-107.751c-0.656-4.125-1.008-8.352-1.008-12.663 0-44.184 35.817-80 80-80s80 35.816 80 80c0 44.182-35.817 80-80 80z" />
<glyph unicode="&#xe628;" glyph-name="attention-e" horiz-adv-x="102" d="M86.906-18.471c-10.145-9.012-21.979-13.529-35.508-13.529-13.755 0-25.761 4.448-36.016 13.351-10.262 8.909-15.383 21.368-15.383 37.375 0 13.976 4.901 25.877 14.71 35.68s21.807 14.71 36.016 14.71 26.324-4.901 36.359-14.71c10.028-9.809 15.046-21.704 15.046-35.68 0-15.781-5.073-28.191-15.225-37.197zM99.763 356.57l-14.545-166.722c-1.572-19.844-4.963-35.055-10.145-45.653-5.189-10.598-13.755-15.89-25.699-15.89-12.177 0-20.634 5.127-25.363 15.389-4.736 10.255-8.12 25.871-10.152 46.834l-10.818 161.993c-2.032 31.548-3.041 54.206-3.041 67.962 0 18.719 4.901 33.318 14.71 43.8 9.802 10.474 22.707 15.719 38.721 15.719 19.384 0 32.35-6.713 38.892-20.119 6.534-13.419 9.809-32.748 9.809-58.001 0-14.875-0.796-29.983-2.368-45.31z" />
<glyph unicode="&#xe629;" glyph-name="rub" horiz-adv-x="390" d="M294.636 334.778c-27.868 19.704-67.709 29.552-119.534 29.552-14.905 0-31.33-0.624-49.249-1.861-17.931-1.248-34.178-3.642-48.728-7.187v-183.662h-24.146v-41.246h24.146v-23.947h-24.134v-45.251h24.134v-69.57h51.65v69.57h152.225v45.251h-152.225v22.026h41.005c25.899 0 49.157 2.129 69.746 6.394 20.594 4.257 38.076 11.089 52.445 20.493 14.378 9.396 25.375 21.642 33.014 36.736 7.627 15.091 11.452 33.282 11.452 54.591 0.005 39.036-13.93 68.413-41.801 88.11zM274.139 210.453c-5.322-9.584-12.87-17.132-22.63-22.63-9.768-5.51-21.745-9.408-35.939-11.713s-30.18-3.461-47.923-3.461h-38.873v144.83c11.713 1.069 28.572 1.596 50.59 1.596 13.845 0 26.976-1.064 39.405-3.197 12.422-2.125 23.338-5.945 32.743-11.441 9.4-5.51 16.863-12.873 22.362-22.097 5.51-9.236 8.252-20.948 8.252-35.151 0-14.911-2.661-27.152-7.983-36.736z" />
<glyph unicode="&#xe62a;" glyph-name="eye" d="M256 384c-111.659 0-208.441-65.021-256-160 47.559-94.979 144.341-160 256-160 111.657 0 208.439 65.021 256 160-47.558 94.979-144.343 160-256 160zM382.225 299.148c30.081-19.187 55.571-44.887 74.717-75.148-19.146-30.261-44.637-55.961-74.718-75.149-37.797-24.108-81.445-36.851-126.224-36.851-44.78 0-88.428 12.743-126.225 36.852-30.080 19.186-55.57 44.886-74.717 75.148 19.146 30.262 44.637 55.962 74.717 75.148 1.959 1.25 3.938 2.461 5.929 3.65-4.979-13.664-7.704-28.411-7.704-43.798 0-70.692 57.308-128 128-128s128 57.308 128 128c0 15.387-2.725 30.134-7.704 43.799 1.99-1.189 3.969-2.401 5.929-3.651zM256 275c0-26.51-21.49-48-48-48s-48 21.49-48 48 21.49 48 48 48 48-21.49 48-48z" />
<glyph unicode="&#xe62b;" glyph-name="eye-blocked" d="M419.661 331.792c38.822-27.515 70.685-64.546 92.339-107.792-47.561-94.979-144.343-160-256-160-31.283 0-61.396 5.106-89.589 14.542l38.978 38.978c16.529-3.65 33.486-5.52 50.611-5.52 44.779 0 88.427 12.743 126.223 36.852 30.081 19.188 55.572 44.888 74.718 75.149-18.526 29.283-43.007 54.275-71.825 73.247l34.545 34.544zM256 131c-11.362 0-22.376 1.488-32.864 4.267l156.593 156.592c2.781-10.486 4.271-21.497 4.271-32.859 0-70.692-57.308-128-128-128zM480 480h-26.869l-109.806-109.806c-27.538 8.962-56.877 13.806-87.325 13.806-111.659 0-208.441-65.021-256-160 21.329-42.596 52.564-79.154 90.597-106.534l-90.597-90.597v-26.869h26.869l453.131 453.131v26.869zM208 323c24.022 0 43.923-17.647 47.446-40.685l-54.762-54.762c-23.037 3.524-40.684 23.425-40.684 47.447 0 26.51 21.49 48 48 48zM55.058 224c19.146 30.262 44.637 55.962 74.717 75.148 1.959 1.25 3.938 2.461 5.929 3.65-4.979-13.664-7.704-28.411-7.704-43.798 0-29.262 9.825-56.224 26.349-77.781l-29.275-29.275c-28.036 18.821-51.877 43.386-70.016 72.056z" />
<glyph unicode="&#xe62c;" glyph-name="person" horiz-adv-x="418" d="M360.697 36.716c0-17.159-13.945-31.077-31.175-31.077h-241.504c-17.22 0-31.166 13.911-31.166 31.077 0 0 0.071 36.493 0 38.82 0.239 9.017 3.725 25.865 10.203 34.245 22.353 29.042 51.181 44.183 99.408 49.217 9.654 1.176 17.15 9.397 17.15 19.272 0 6.822-21.892 27.016-21.892 27.016-22.901 23.369-34.749 61.57-34.749 90.923 0 45.334 36.617 82.154 81.808 82.154 45.165 0 81.799-36.82 81.799-82.154 0-29.193-12.159-67.172-34.846-90.543 0.16-0.151-21.812-20.574-21.812-27.396 0-9.336 6.725-17.159 15.592-18.956 49.235-4.885 78.374-20.096 100.984-49.544 6.45-8.38 9.973-25.238 10.193-34.245-0.053-2.318 0.007-38.812 0.007-38.812z" />
<glyph unicode="&#xe62d;" glyph-name="wait" horiz-adv-x="401" d="M377.18 382.624v28.98c0 7.647-6.219 13.865-13.876 13.865h-325.527c-7.659 0-13.865-6.219-13.865-13.865v-28.98c0-7.636 6.207-13.865 13.865-13.865h7.535c0-5.526 0-12.548-0.023-17.326-0.056-15.428 5.694-31.347 16.901-45.547l77.364-98.082c2.366-3.014 4.957-5.738 7.647-8.328-2.69-2.579-5.269-5.325-7.636-8.317l-77.385-98.082c-11.185-14.189-16.913-30.075-16.88-45.48 0-2.992 0.011-9.288 0.011-16.355h-7.535c-7.659 0-13.865-6.219-13.865-13.876v-28.969c0-7.659 6.207-13.865 13.865-13.865h325.527c7.659 0 13.865 6.219 13.865 13.865v28.969c0 7.659-6.219 13.865-13.865 13.865h-7.502c0 7.055-0.010 13.631-0.022 16.913-0.101 15.227-5.827 30.911-16.89 44.922l-77.374 98.082c-2.366 3.003-4.957 5.738-7.636 8.317 2.669 2.59 5.269 5.325 7.636 8.328l77.385 98.072c10.929 13.865 16.656 29.371 16.88 44.442 0.078 5.091 0.067 12.615 0.055 18.431h7.469c7.659 0.022 13.876 6.252 13.876 13.887zM301.692 63.716c12.548-15.908 6.844-28.892-12.269-29.94-29.382 0.837-71.87 50.962-71.87 50.962-9.366 10.527-24.661 10.527-34.015 0 0 0-40.714-51.162-69.526-51.162-21.121 0-27.697 13.564-14.624 30.13l77.385 98.082c6.542 8.294 15.149 12.436 23.778 12.436s17.226-4.142 23.778-12.436l77.363-98.072zM301.704 335.245l-28.623-36.293c-19.949-25.241-122.497-27.887-145.047 0l-28.635 36.293c-13.085 16.567-6.497 30.13 14.613 30.13h173.079c21.11 0 27.675-13.564 14.613-30.13zM210.71 129.469c0-5.617-4.554-10.17-10.17-10.17s-10.17 4.553-10.17 10.17c0 5.617 4.554 10.17 10.17 10.17s10.17-4.553 10.17-10.17z" />
<glyph unicode="&#xe62e;" glyph-name="plus" d="M455.171 280.828h-142.343v142.343c0 31.389-25.469 56.829-56.858 56.829-31.374 0-56.799-25.44-56.799-56.829v-142.343h-142.328c-31.389 0-56.843-25.44-56.843-56.843 0-31.389 25.454-56.814 56.843-56.814h142.314v-142.343c0-31.374 25.425-56.828 56.799-56.828 31.404 0 56.858 25.454 56.858 56.829v142.343h142.343c31.374 0 56.829 25.411 56.829 56.814 0.014 31.404-25.44 56.843-56.814 56.843z" />
<glyph unicode="&#xe62f;" glyph-name="check" horiz-adv-x="586" d="M559.419 465.325c-30.082 23.54-73.552 18.196-97.091-11.886l-213.505-272.935-126.404 149.659c-24.398 29.403-67.957 33.478-97.395 9.098-29.402-24.362-33.478-67.957-9.169-97.359l238.135-273.901 317.281 400.234c23.54 30.082 18.25 73.57-11.851 97.091z" />
<glyph unicode="&#xe630;" glyph-name="skull" horiz-adv-x="473" d="M109.927 10.676c0-23.584 19.657-42.676 43.954-42.676h164.844c24.309 0 43.954 19.092 43.954 42.676v12.483c0 10.019 7.163 18.436 16.813 20.693 52.764 7.888 93.114 52.142 93.114 105.47 0 24.010-8.153 46.2-21.995 64.014v72.962c0.012 106.99-95.912 193.702-214.303 193.702-118.379 0-214.303-86.712-214.303-193.702v-72.962c-13.853-17.815-22.006-40.005-22.006-64.014 0-53.328 40.35-97.594 93.079-105.47 9.696-2.257 16.847-10.675 16.847-20.693v-12.483zM87.932 224.012c0 29.445 24.609 53.328 54.951 53.328s54.952-23.883 54.952-53.328c0-29.457-24.608-53.328-54.952-53.328s-54.952 23.872-54.952 53.328zM274.759 224.012c0 29.445 24.632 53.328 54.963 53.328s54.963-23.883 54.963-53.328c0-29.457-24.632-53.328-54.963-53.328s-54.963 23.872-54.963 53.328zM182.117 110.077l38.68 37.541c8.579 8.337 22.421 8.337 31 0l38.692-37.541c8.349-8.096 8.349-21.235 0-29.33-8.349-8.107-21.88-8.107-30.228 0l-23.975 23.261-23.952-23.261c-8.349-8.107-21.88-8.107-30.228 0-8.326 8.096-8.326 21.235 0.012 29.33z" />
<glyph unicode="&#xe631;" glyph-name="o-plus" d="M256.006 480c-141.388 0-256.006-114.618-256.006-256s114.618-256 256.006-256c141.382 0 256.006 114.618 256.006 256s-114.624 256-256.006 256zM359.043 194.602h-73.644v-73.65c0-16.226-13.166-29.392-29.416-29.392-16.226 0-29.386 13.166-29.386 29.392v73.65h-73.626c-16.244 0-29.41 13.147-29.41 29.38 0 16.25 13.172 29.416 29.41 29.416h73.626v73.638c0 16.238 13.16 29.404 29.386 29.404 16.25 0 29.416-13.166 29.416-29.404v-73.638h73.644c16.238 0 29.404-13.166 29.404-29.416 0-16.232-13.166-29.38-29.404-29.38z" />
<glyph unicode="&#xe632;" glyph-name="volume-high" horiz-adv-x="544" d="M445.020 18.98c-6.143 0-12.284 2.343-16.971 7.029-9.372 9.373-9.372 24.568 0 33.941 43.819 43.821 67.952 102.080 67.952 164.050 0 61.969-24.133 120.229-67.952 164.049-9.372 9.373-9.372 24.569 0 33.941s24.569 9.372 33.941 0c52.885-52.886 82.011-123.2 82.011-197.99s-29.126-145.104-82.011-197.99c-4.686-4.687-10.828-7.030-16.97-7.030zM359.765 64.235c-6.143 0-12.284 2.343-16.971 7.029-9.372 9.372-9.372 24.568 0 33.941 65.503 65.503 65.503 172.085 0 237.588-9.372 9.373-9.372 24.569 0 33.941 9.372 9.371 24.569 9.372 33.941 0 40.797-40.796 63.265-95.038 63.265-152.734s-22.468-111.938-63.265-152.735c-4.686-4.687-10.828-7.030-16.97-7.030zM274.51 109.49c-6.143 0-12.284 2.343-16.971 7.029-9.373 9.373-9.373 24.568 0 33.941 40.55 40.55 40.55 106.529 0 147.078-9.373 9.373-9.373 24.569 0 33.941s24.568 9.372 33.941 0c59.265-59.265 59.265-155.696 0-214.961-4.686-4.685-10.828-7.028-16.97-7.028zM200.666 440.666c12.834 12.834 23.334 8.484 23.334-9.666v-414c0-18.15-10.5-22.499-23.334-9.665l-120.666 120.665h-80v192h80l120.666 120.666z" />
<glyph unicode="&#xe633;" glyph-name="volume-medium" d="M359.765 64.235c-6.143 0-12.284 2.343-16.971 7.029-9.372 9.372-9.372 24.568 0 33.941 65.503 65.503 65.503 172.085 0 237.588-9.372 9.373-9.372 24.569 0 33.941 9.372 9.371 24.569 9.372 33.941 0 40.797-40.796 63.265-95.038 63.265-152.734s-22.468-111.938-63.265-152.735c-4.686-4.687-10.828-7.030-16.97-7.030zM274.51 109.49c-6.143 0-12.284 2.343-16.971 7.029-9.373 9.373-9.373 24.568 0 33.941 40.55 40.55 40.55 106.529 0 147.078-9.373 9.373-9.373 24.569 0 33.941s24.568 9.372 33.941 0c59.265-59.265 59.265-155.696 0-214.961-4.686-4.685-10.828-7.028-16.97-7.028zM200.666 440.666c12.834 12.834 23.334 8.484 23.334-9.666v-414c0-18.15-10.5-22.499-23.334-9.665l-120.666 120.665h-80v192h80l120.666 120.666z" />
<glyph unicode="&#xe634;" glyph-name="volume-low" d="M274.51 109.49c-6.143 0-12.284 2.343-16.971 7.029-9.373 9.373-9.373 24.568 0 33.941 40.55 40.55 40.55 106.529 0 147.078-9.373 9.373-9.373 24.569 0 33.941s24.568 9.372 33.941 0c59.265-59.265 59.265-155.696 0-214.961-4.686-4.685-10.828-7.028-16.97-7.028zM200.666 440.666c12.834 12.834 23.334 8.484 23.334-9.666v-414c0-18.15-10.5-22.499-23.334-9.665l-120.666 120.665h-80v192h80l120.666 120.666z" />
<glyph unicode="&#xe635;" glyph-name="volume-mute" d="M200.666 440.666c12.834 12.834 23.334 8.484 23.334-9.666v-414c0-18.15-10.5-22.499-23.334-9.665l-120.666 120.665h-80v192h80l120.666 120.666z" />
<glyph unicode="&#xe636;" glyph-name="tower" horiz-adv-x="417" d="M396.618 168.903h-26.635c-4.589 0-8.313-3.723-8.313-8.317v-31.654h-18.933v31.655c0 4.596-3.723 8.317-8.322 8.317h-26.635c-4.589 0-8.313-3.723-8.313-8.317v-31.655h-23.554v31.655c0 4.596-3.723 8.317-8.322 8.317h-26.636c-4.589 0-8.313-3.723-8.313-8.317v-31.655h-17.965v105.45h13.593c4.6 0 8.322 3.722 8.322 8.317v63.319c0 4.595-3.722 8.317-8.322 8.317h-26.636c-4.589 0-8.313-3.723-8.313-8.317v-31.655h-18.954v31.655c0 4.595-3.722 8.317-8.322 8.317h-15.243v61.241l30.197 9.457c9.865 3.091 25.995 8.145 35.861 11.242l32.164 10.077c9.86 3.087 9.86 8.146 0 11.233l-32.164 10.077c-9.865 3.091-25.995 8.145-35.861 11.242l-32.154 10.058c-9.86 3.093-17.93-2.834-17.93-13.168v-5.038c0-3.954 0-8.882 0-14.021v-142.374h-23.377v31.655c0 4.596-3.722 8.317-8.322 8.317h-26.636c-4.59 0-8.311-3.722-8.311-8.317v-31.655h-18.514v31.655c0 4.596-3.722 8.317-8.322 8.317h-26.64c-4.59 0.005-8.312-3.717-8.312-8.313v-63.313c0-4.595 3.723-8.317 8.312-8.317h13.603v-221.238c0-7.898 6.406-14.299 14.294-14.299h161.666c1.161 0 2.27 0.171 3.349 0.438 1.079-0.267 2.194-0.438 3.349-0.438h183.581c7.898 0 14.304 6.4 14.304 14.299v147.438c0.005 4.596-3.717 8.317-8.317 8.317zM141.094 84.050h-43.133v86.298c0 10.39 8.423 18.809 18.808 18.809h5.507c10.391 0 18.813-8.418 18.813-18.809v-86.298z" />
<glyph unicode="&#xe637;" glyph-name="persons" horiz-adv-x="669" d="M458.752 68.711c0-17.153-13.943-31.072-31.173-31.072h-241.488c-17.231 0-31.166 13.918-31.166 31.072 0 0 0.065 36.497 0 38.825 0.232 9.010 3.726 25.854 10.193 34.241 22.365 29.041 51.192 44.18 99.424 49.227 9.643 1.172 17.141 9.4 17.141 19.262 0 6.823-21.892 27.021-21.892 27.021-22.911 23.361-34.75 61.575-34.75 90.925-0.007 45.329 36.616 82.152 81.802 82.152 45.175 0 81.808-36.824 81.808-82.158 0-29.189-12.159-67.168-34.845-90.545 0.16-0.136-21.815-20.571-21.815-27.395 0-9.329 6.711-17.159 15.601-18.942 49.22-4.887 78.356-20.109 100.975-49.54 6.45-8.387 9.962-25.238 10.182-34.241-0.041-2.334 0-38.832 0-38.832zM641.726 101.873c-0.19 7.842-3.246 22.502-8.855 29.798-19.682 25.605-45.033 38.854-87.856 43.102-7.736 1.552-13.569 8.363-13.569 16.478 0 5.94 19.12 23.716 18.977 23.835 19.736 20.346 30.314 53.385 30.314 78.776 0 39.447-31.871 71.479-71.177 71.479-39.323 0-71.183-32.032-71.183-71.479 0-25.534 10.3-58.774 30.231-79.103 0 0 19.048-17.568 19.048-23.509 0-8.577-6.522-15.731-14.915-16.763-3.826-0.397-7.462-0.894-11.012-1.446 3.998-4.158 7.848-8.594 11.538-13.399 10.543-13.7 14.801-36.279 15.091-48.113l0.007-0.515-0.007-0.45c-0.023-1.966-0.012-24.598 0.007-38.428 0-11.538-3.606-22.235-9.743-31.072h135.969c14.986 0 27.121 12.101 27.121 27.034 0.011 0.007-0.023 31.753 0.011 33.772z" />
<glyph unicode="&#xe900;" glyph-name="freeze" data-tags="noun_3777" horiz-adv-x="611" d="M544.814 257.057l-53.981-0.078 10.74 16.941c6.841 10.786 3.644 25.065-7.14 31.888-10.804 6.861-25.082 3.638-31.914-7.12l-26.476-41.786-90.971-0.13 45.45 79.829 62.765 3.411c12.779 0.687 22.553 11.567 21.848 24.346-0.685 12.747-11.567 22.536-24.346 21.822l-33.056-1.773 14.563 25.564c6.312 11.094 2.44 25.193-8.654 31.531-11.108 6.312-25.201 2.44-31.544-8.686l-14.642-25.712-9.031 16.377c-6.141 11.206-20.214 15.262-31.428 9.095-11.161-6.156-15.225-20.223-9.075-31.402l22.677-41.215-45.462-79.861-45.475 79.855 22.677 41.215c6.15 11.178 2.091 25.246-9.075 31.402-11.212 6.162-25.279 2.109-31.422-9.095l-9.030-16.377-14.642 25.712c-6.338 11.122-20.435 14.998-31.544 8.686-11.089-6.337-14.966-20.435-8.655-31.531l14.563-25.564-33.060 1.773c-12.773 0.714-23.661-9.075-24.346-21.822-0.705-12.779 9.075-23.656 21.854-24.346l62.765-3.411 45.45-79.829-90.971 0.136-26.476 41.786c-6.835 10.758-21.111 13.976-31.914 7.12-10.784-6.823-13.977-21.102-7.14-31.888l10.733-16.941-53.969 0.078c-12.773 0-23.142-10.337-23.182-23.11 0-12.759 10.319-23.156 23.078-23.156l53.159-0.078-16.779-26.968c-6.728-10.824-3.412-25.071 7.424-31.868 10.841-6.725 25.111-3.418 31.842 7.464l31.933 51.288 92.42-0.13-44.168-77.273-47.728-2.738c-12.746-0.771-22.501-11.659-21.757-24.404s11.653-22.541 24.398-21.757l17.717 1.010-27.006-47.241c-6.309-11.115-2.46-25.24 8.616-31.551 11.070-6.377 25.195-2.524 31.544 8.603l28.048 49.060 16.585-29.765c6.228-11.192 20.293-15.213 31.46-8.959 11.135 6.195 15.178 20.262 8.959 31.433l-30.185 54.209 43.24 75.642 0.070-0.123 0.070 0.123 43.243-75.642-30.18-54.209c-6.221-11.173-2.175-25.24 8.959-31.433 11.161-6.252 25.223-2.233 31.454 8.959l16.585 29.765 28.048-49.060c6.337-11.122 20.466-14.978 31.538-8.603 11.076 6.312 14.926 20.438 8.616 31.551l-27.007 47.241 17.711-1.010c12.747-0.784 23.661 9.017 24.404 21.757 0.745 12.744-9.011 23.627-21.764 24.404l-47.728 2.738-44.163 77.273 92.42 0.13 31.926-51.288c6.728-10.882 21.007-14.19 31.842-7.464 10.836 6.797 14.157 21.045 7.428 31.868l-16.786 26.968 53.166 0.078c12.759 0 23.084 10.397 23.084 23.156-0.052 12.773-10.415 23.11-23.188 23.11z" />
<glyph unicode="&#xe901;" glyph-name="invite-invert" data-tags="invite-invert" d="M212.2-1.97c-17.729 0-32.153 14.533-32.153 32.396 0 3.266 0.462 6.423 1.374 9.391l30.058 116.428h-86.096c-17.878 0-32.423 14.62-32.423 32.589 0 7.31 2.452 14.442 6.907 20.101l174.7 228.718c0.049 0.063 0.098 0.127 0.147 0.19 6.086 7.708 15.233 12.129 25.096 12.129 17.736 0 32.166-14.539 32.166-32.409 0-3.123-0.445-6.24-1.322-9.273l-30.113-116.534h86.101c17.87 0 32.409-14.62 32.409-32.589 0-7.408-2.381-14.351-6.887-20.090l-174.72-228.74c-0.065-0.085-0.131-0.169-0.197-0.252-6.114-7.659-15.244-12.053-25.047-12.053zM210.097 31.006c0 0-0.050-0.183-0.050-0.58 0-1.299 0.986-2.396 2.153-2.396 0.237 0 0.942 0 1.544 0.701l174.648 228.645c0.055 0.072 0.111 0.144 0.167 0.215 0.331 0.417 0.492 0.933 0.492 1.575 0 1.404-1.103 2.589-2.409 2.589h-104.991c-0.781-0.024-1.574 0.012-2.371 0.113-7.493 0.952-13.111 7.321-13.111 14.874 0 1.419 0.197 2.792 0.565 4.094l34.935 135.197c0.048 0.187 0.1 0.372 0.156 0.557 0.099 0.333 0.151 0.659 0.151 0.97 0 1.328-0.971 2.409-2.166 2.409-0.639 0-1.134-0.219-1.51-0.669l-174.669-228.678c-0.062-0.081-0.125-0.161-0.189-0.241-0.221-0.277-0.484-0.77-0.484-1.549 0-1.38 1.132-2.589 2.423-2.589h105.46c4.639 0 9.018-2.147 11.858-5.815s3.825-8.444 2.666-12.935l-34.998-135.563c-0.081-0.312-0.171-0.62-0.271-0.925 0 0 0 0 0 0z" />
<glyph unicode="&#xf02d;" glyph-name="alert" data-tags="alert" d="M502.927 79.877l-219.143 383.5c-5.697 9.971-16.3 16.123-27.784 16.123s-22.087-6.153-27.784-16.123l-219.143-383.5c-5.66-9.904-5.619-22.072 0.107-31.938s16.27-15.938 27.677-15.938h438.286c11.407 0 21.952 6.072 27.677 15.938s5.767 22.034 0.107 31.938zM288 96h-64v64h64v-64zM288 192h-64v128h64v-128z" />
<glyph unicode="&#xf04c;" glyph-name="pause" data-tags="pause" horiz-adv-x="439" d="M438.857 420.572v-402.286q0-7.428-5.428-12.857t-12.857-5.428h-146.286q-7.428 0-12.857 5.428t-5.428 12.857v402.286q0 7.428 5.428 12.857t12.857 5.429h146.286q7.428 0 12.857-5.429t5.428-12.857zM182.857 420.572v-402.286q0-7.428-5.429-12.857t-12.857-5.428h-146.286q-7.428 0-12.857 5.428t-5.428 12.857v402.286q0 7.428 5.428 12.857t12.857 5.429h146.286q7.429 0 12.857-5.429t5.428-12.857z" />
<glyph unicode="&#xf052;" glyph-name="primitive-dot" data-tags="primitive-dot" horiz-adv-x="256" d="M-0.044 224c0 70.75 57.25 128 128 128 70.719 0 128-57.25 128-128s-57.281-128-128-128c-70.749 0-128 57.25-128 128z" />
<glyph unicode="&#xf056;" glyph-name="minus-circle" data-tags="minus-circle" horiz-adv-x="439" d="M347.428 201.143v36.572q0 7.428-5.428 12.857t-12.857 5.429h-219.429q-7.428 0-12.857-5.428t-5.428-12.857v-36.571q0-7.428 5.428-12.857t12.857-5.428h219.429q7.428 0 12.857 5.428t5.428 12.857zM438.857 219.429q0-59.714-29.428-110.143t-79.857-79.857-110.143-29.428-110.143 29.428-79.857 79.857-29.428 110.143 29.428 110.143 79.857 79.857 110.143 29.428 110.143-29.428 79.857-79.857 29.428-110.143z" />
<glyph unicode="&#xf05e;" glyph-name="ban" data-tags="ban" horiz-adv-x="439" d="M374.857 220.286q0 46-24.857 84.286l-215.429-215.143q39.143-25.428 84.857-25.428 31.714 0 60.428 12.428t49.572 33.286 33.143 49.857 12.286 60.714zM89.428 134.857l215.714 215.428q-38.572 26-85.714 26-42.286 0-78-20.857t-56.572-56.857-20.857-78.285q0-46.286 25.428-85.428zM438.857 220.286q0-44.857-17.428-85.714t-46.714-70.286-70-46.857-85.286-17.428-85.286 17.428-70 46.857-46.715 70.286-17.428 85.714 17.428 85.572 46.715 70.143 70 46.857 85.286 17.428 85.286-17.428 70-46.857 46.714-70.143 17.428-85.572z" />
<glyph unicode="&#xf069;" glyph-name="asterisk" data-tags="asterisk" horiz-adv-x="475" d="M423.428 175.429q13.143-7.428 17-22.143t-3.572-27.857l-18.286-31.428q-7.428-13.143-22.143-17t-27.857 3.572l-76 43.714v-87.714q0-14.857-10.857-25.714t-25.714-10.857h-36.572q-14.857 0-25.714 10.857t-10.857 25.714v87.714l-76-43.714q-13.143-7.428-27.857-3.572t-22.143 17l-18.285 31.428q-7.428 13.143-3.572 27.857t17 22.143l76 44-76 44q-13.143 7.428-17 22.143t3.572 27.857l18.285 31.428q7.428 13.143 22.143 17t27.857-3.572l76-43.714v87.714q0 14.857 10.857 25.714t25.714 10.857h36.572q14.857 0 25.714-10.857t10.857-25.714v-87.714l76 43.714q13.143 7.428 27.857 3.572t22.143-17l18.286-31.428q7.428-13.143 3.572-27.857t-17-22.143l-76-44z" />
<glyph unicode="&#xf08b;" glyph-name="alignment-unalign" data-tags="alignment-unalign" horiz-adv-x="448" d="M256 384l-64-64-128 128-64-64 128-128-64-64 32-32 192 192-32 32zM320 192l64 64-32 32-192-192 32-32 64 64 128-128 64 64-128 128z" />
<glyph unicode="&#xf104;" glyph-name="angle-left" data-tags="angle-left" horiz-adv-x="192" d="M179.143 320q0-3.714-2.857-6.571l-112.285-112.286 112.285-112.286q2.857-2.857 2.857-6.572t-2.857-6.572l-14.286-14.286q-2.857-2.857-6.572-2.857t-6.572 2.857l-133.143 133.143q-2.857 2.857-2.857 6.572t2.857 6.572l133.143 133.143q2.857 2.857 6.572 2.857t6.572-2.857l14.286-14.286q2.857-2.857 2.857-6.571z" />
<glyph unicode="&#xf105;" glyph-name="angle-right" data-tags="angle-right" horiz-adv-x="174" d="M170 201.143q0-3.714-2.857-6.572l-133.143-133.143q-2.857-2.857-6.572-2.857t-6.572 2.857l-14.286 14.286q-2.857 2.857-2.857 6.572t2.857 6.572l112.285 112.286-112.285 112.286q-2.857 2.857-2.857 6.572t2.857 6.572l14.285 14.286q2.857 2.857 6.572 2.857t6.572-2.857l133.143-133.143q2.857-2.857 2.857-6.572z" />
<glyph unicode="&#xf106;" glyph-name="angle-up" data-tags="angle-up" horiz-adv-x="329" d="M307.143 137.143q0-3.714-2.857-6.572l-14.286-14.286q-2.857-2.857-6.572-2.857t-6.572 2.857l-112.286 112.286-112.285-112.286q-2.857-2.857-6.572-2.857t-6.572 2.857l-14.285 14.286q-2.857 2.857-2.857 6.572t2.857 6.572l133.143 133.143q2.857 2.857 6.571 2.857t6.572-2.857l133.143-133.143q2.857-2.857 2.857-6.572z" />
<glyph unicode="&#xf107;" glyph-name="angle-down" data-tags="angle-down" horiz-adv-x="329" d="M307.143 265.143q0-3.714-2.857-6.572l-133.143-133.143q-2.857-2.857-6.571-2.857t-6.572 2.857l-133.143 133.143q-2.857 2.857-2.857 6.572t2.857 6.572l14.285 14.286q2.857 2.857 6.572 2.857t6.572-2.857l112.285-112.286 112.285 112.286q2.857 2.857 6.572 2.857t6.572-2.857l14.286-14.286q2.857-2.857 2.857-6.572z" />
<glyph unicode="&#xf111;" glyph-name="circle" data-tags="circle" horiz-adv-x="439" d="M438.857 219.429q0-59.714-29.428-110.143t-79.857-79.857-110.143-29.428-110.143 29.428-79.857 79.857-29.428 110.143 29.428 110.143 79.857 79.857 110.143 29.428 110.143-29.428 79.857-79.857 29.428-110.143z" />
<glyph unicode="&#xf28c;" glyph-name="pause-circle-o" data-tags="pause-circle-o" horiz-adv-x="439" d="M219.429 438.857q59.715 0 110.143-29.428t79.857-79.857 29.428-110.143-29.428-110.143-79.857-79.857-110.143-29.428-110.143 29.428-79.857 79.857-29.428 110.143 29.428 110.143 79.857 79.857 110.143 29.428zM219.429 64q42.285 0 78 20.857t56.572 56.572 20.857 78-20.857 78-56.572 56.572-78 20.857-78-20.857-56.572-56.572-20.857-78 20.857-78 56.572-56.572 78-20.857zM246.857 128q-4 0-6.571 2.572t-2.571 6.572v164.571q0 4 2.571 6.572t6.572 2.571h54.857q4 0 6.572-2.571t2.572-6.572v-164.571q0-4-2.572-6.572t-6.572-2.572h-54.857zM137.143 128q-4 0-6.571 2.572t-2.571 6.572v164.571q0 4 2.571 6.572t6.572 2.571h54.857q4 0 6.571-2.571t2.571-6.572v-164.571q0-4-2.571-6.572t-6.572-2.572h-54.857z" />
</font>
</defs>
</svg>
